#define icel_width 20
#define icel_height 20
static unsigned char icel_bits[] = {
   0xff, 0xff, 0x0f, 0xff, 0xff, 0x0f, 0xff, 0xff, 0x0f, 0xff, 0xff, 0x0f,
   0xff, 0xff, 0x0f, 0xff, 0xff, 0x0f, 0xbf, 0x87, 0x0f, 0x5f, 0xfb, 0x0f,
   0x5f, 0xfd, 0x0f, 0xbf, 0xfd, 0x0f, 0xff, 0xfd, 0x0f, 0xff, 0xfd, 0x0f,
   0xff, 0xfb, 0x0f, 0xff, 0x87, 0x0f, 0xff, 0xff, 0x0f, 0xff, 0xff, 0x0f,
   0xff, 0xff, 0x0f, 0xff, 0xff, 0x0f, 0xff, 0xff, 0x0f, 0xff, 0xff, 0x0f };
