#define ihPa_width 20
#define ihPa_height 20
static unsigned char ihPa_bits[] = {
   0xff, 0xff, 0x0f, 0xff, 0xff, 0x0f, 0xff, 0xff, 0x0f, 0xff, 0xff, 0x0f,
   0xff, 0xff, 0x0f, 0xfd, 0xff, 0x0f, 0xfd, 0xf0, 0x0f, 0xfd, 0xee, 0x0f,
   0xe1, 0x6e, 0x0c, 0xdd, 0xee, 0x0b, 0xdd, 0x70, 0x08, 0xdd, 0xbe, 0x0b,
   0xdd, 0xbe, 0x0b, 0xdd, 0x7e, 0x08, 0xff, 0xff, 0x0f, 0xff, 0xff, 0x0f,
   0xff, 0xff, 0x0f, 0xff, 0xff, 0x0f, 0xff, 0xff, 0x0f, 0xff, 0xff, 0x0f };
